:version 1.10
:name ASF
:units
  mass 1
  length 1
  angle deg
:documentation
  ASF file generated by Kaydara
:root
  axis xyz
  order  tx ty tz rx ry rz
  position 0 0 0
  orientation 0 0 0
:bonedata
  begin
    id 1
    name RightUpLegDummy
    direction -1 2.30186e-007 8.31532e-007
    length 4.04083
    axis 0 0 0 xyz
  end
  begin
    id 2
    name RightUpLeg
    direction -0.000919234 -0.999985 0.00544864
    length 17.4221
    axis -3.80308 -0.00076134 -0.0523649 xyz
    dof rx ry rz
  end
  begin
    id 3
    name RightLeg
    direction -0.000919271 -0.999984 -0.00555045
    length 17.1239
    axis 4.00314 0.0181274 -0.183583 xyz
    dof rx ry rz
  end
  begin
    id 4
    name RightFoot
    direction -2.57843e-005 -4.04509e-007 1
    length 6.72091
    axis 8.18909e-005 -0.122003 -0.403008 xyz
    dof rx ry rz
  end
  begin
    id 5
    name RightToes
    direction 0.00116825 -0.014069 0.9999
    length 3.85082
    axis 0.000514414 0.540638 -0.356797 xyz
    dof rx ry rz
  end
  begin
    id 6
    name SpineDummy
    direction 0.0168869 0.966876 -0.254689
    length 6.99894
    axis 0 0 0 xyz
  end
  begin
    id 7
    name Spine
    direction -0.0132008 0.999903 0.00446247
    length 11.1999
    axis -0.00148109 0.00725429 0.756411 xyz
    dof rx ry rz
  end
  begin
    id 8
    name Spine1
    direction 0 0 0
    length 0
    axis -0.000934958 0.0245693 1.46543 xyz
    dof rx ry rz
  end
  begin
    id 9
    name HEadDummy
    direction -0.0255732 0.999672 0.00128215
    length 3.43865
    axis -0.000934958 0.0245693 1.46543 xyz
  end
  begin
    id 10
    name HEad
    direction -0.0472656 0.980052 0.19304
    length 5.12695
    axis -0.000934954 0.0245693 1.46543 xyz
    dof rx ry rz
  end
  begin
    id 11
    name LeftShoulder1Dummy
    direction 0.953098 0.301717 -0.023914
    length 3.68488
    axis -0.000934958 0.0245693 1.46543 xyz
  end
  begin
    id 12
    name LeftShoulder1
    direction 0.962466 0.271167 0.0112566
    length 3.13809
    axis -0.000934958 0.0245693 1.46543 xyz
    dof rx ry rz
  end
  begin
    id 13
    name LeftArm
    direction 0.999943 0.00455037 -0.00961766
    length 11.3419
    axis -23.1648 0.685459 1.22814 xyz
    dof rx ry rz
  end
  begin
    id 14
    name LeftForeArm
    direction 0.999332 0.0131969 0.0340885
    length 8.70632
    axis -9.90633 0.618216 0.0826942 xyz
    dof rx ry rz
  end
  begin
    id 15
    name LeftHand
    direction 0.994373 -0.0366703 0.0993905
    length 5.32135
    axis 0.00675269 0.680415 0.445699 xyz
    dof rx ry rz
  end
  begin
    id 16
    name RightShoulderDummy
    direction -0.967298 0.252589 -0.0230903
    length 3.68488
    axis -0.000934958 0.0245693 1.46543 xyz
  end
  begin
    id 17
    name RightShoulder
    direction -0.975062 0.221602 0.0120823
    length 3.13809
    axis 0.216257 0.0246515 1.45863 xyz
    dof rx ry rz
  end
  begin
    id 18
    name RightArm
    direction -0.99886 -0.00851186 -0.0469687
    length 10.3947
    axis -23.196 0.23503 -0.532632 xyz
    dof rx ry rz
  end
  begin
    id 19
    name RightForeArm
    direction -0.99909 0.00114866 0.0426317
    length 8.68355
    axis -9.91764 -0.134943 0.610517 xyz
    dof rx ry rz
  end
  begin
    id 20
    name RightHand
    direction -0.992888 -0.0489538 0.10852
    length 5.28593
    axis -0.00275396 -0.197403 0.246414 xyz
    dof rx ry rz
  end
  begin
    id 21
    name LeftUpLegDummy
    direction 1 -2.30186e-007 -8.31532e-007
    length 4.04083
    axis 0 0 0 xyz
  end
  begin
    id 22
    name LeftUpLeg
    direction -0.000920097 -1 2.79241e-006
    length 17.4221
    axis -3.48782 0.00143434 -0.0532288 xyz
    dof rx ry rz
  end
  begin
    id 23
    name LeftLeg
    direction -0.000920097 -1 2.7912e-006
    length 17.1239
    axis 3.68162 -0.00806512 -0.0529896 xyz
    dof rx ry rz
  end
  begin
    id 24
    name LeftFoot
    direction -2.57845e-005 -3.987e-007 1
    length 6.72091
    axis 3.02372e-005 -0.00147829 -0.214229 xyz
    dof rx ry rz
  end
  begin
    id 25
    name LeftToes
    direction 0.00813577 -0.00488255 0.999955
    length 3.85048
    axis 3.89895e-005 -0.0014783 -0.214229 xyz
    dof rx ry rz
  end
:hierarchy
  begin
    root RightUpLegDummy SpineDummy LeftUpLegDummy
    RightUpLegDummy RightUpLeg
    RightUpLeg RightLeg
    RightLeg RightFoot
    RightFoot RightToes
    SpineDummy Spine
    Spine Spine1
    Spine1 HEadDummy LeftShoulder1Dummy RightShoulderDummy
    HEadDummy HEad
    LeftShoulder1Dummy LeftShoulder1
    LeftShoulder1 LeftArm
    LeftArm LeftForeArm
    LeftForeArm LeftHand
    RightShoulderDummy RightShoulder
    RightShoulder RightArm
    RightArm RightForeArm
    RightForeArm RightHand
    LeftUpLegDummy LeftUpLeg
    LeftUpLeg LeftLeg
    LeftLeg LeftFoot
    LeftFoot LeftToes
  end

:SAMPLES-PER-SECOND 30
:FULLY-SPECIFIED
:DEGREES
98
root  -15.066 33.9465 20.9823 -165.407 12.6656 -175.499
RightUpLeg  -19.5401 -3.70671 10.1331
RightLeg  16.9236 -5.29583 -1.24396
RightFoot  -3.99134 -0.00264144 0.502792
RightToes  -16.2873 -0.0622656 -0.146322
Spine  -1.24849 -0.310323 2.26665
Spine1  -2.54521 -0.609927 5.0611
HEad  -55.4048 -2.07107 7.31595
LeftShoulder1  -1.94126e-019 -3.10601e-018 -2.51263e-017
LeftArm  -13.8359 22.0698 -83.1518
LeftForeArm  29.1567 -27.5096 -4.63114
LeftHand  -0.407448 -1.04719 7.48742
RightShoulder  -4.96962e-017 0 -2.36833e-017
RightArm  -30.2952 -22.8643 72.7734
RightForeArm  56.833 14.2053 1.21525
RightHand  -0.701032 1.35435 -12.1936
LeftUpLeg  -20.7568 11.928 4.39626
LeftLeg  57.9526 13.7917 18.3243
LeftFoot  11.9941 -0.521788 5.12546
LeftToes  -28.8968 1.31378e-006 1.14341e-007
99
root  -14.869 33.992 20.0372 -165.219 14.0287 -175.855
RightUpLeg  -17.2422 -3.40167 9.49455
RightLeg  15.0805 -4.43232 -0.89198
RightFoot  -4.49665 -0.0034097 0.486042
RightToes  -16.8039 -0.0643677 -0.150641
Spine  -1.40259 -0.0623105 2.1453
Spine1  -2.83424 -0.0470367 4.81303
HEad  -54.0008 -2.78866 7.07996
LeftShoulder1  -1.94126e-019 -3.10601e-018 -2.51263e-017
LeftArm  -12.577 22.4672 -83.6112
LeftForeArm  27.3782 -29.6151 -4.9668
LeftHand  -0.380644 -0.958937 7.09268
RightShoulder  -4.96962e-017 0 -2.36833e-017
RightArm  -29.0396 -21.9435 72.2976
RightForeArm  55.3336 15.0762 1.13043
RightHand  -0.534635 -0.0781003 -11.7211
LeftUpLeg  -22.0669 12.4192 3.58338
LeftLeg  57.0236 13.1407 16.9755
LeftFoot  12.7545 -0.551479 5.09279
LeftToes  -31.2315 1.31378e-006 1.14341e-007
100
root  -14.6683 33.9828 19.0606 -165.19 16.0221 -176.139
RightUpLeg  -15.4951 -2.33705 8.69116
RightLeg  14.7842 -3.62725 -0.710722
RightFoot  -5.42488 -0.00350512 0.493435
RightToes  -17.5963 -0.0684684 -0.15722
Spine  -1.4861 0.191104 2.05215
Spine1  -2.9825 0.51362 4.64461
HEad  -52.3271 -3.48216 6.64749
LeftShoulder1  -1.94126e-019 -3.10601e-018 -2.51263e-017
LeftArm  -11.2539 22.8933 -84.1128
LeftForeArm  26.6464 -30.9468 -5.26264
LeftHand  -0.371505 -0.894329 6.99078
RightShoulder  -4.96962e-017 0 -2.36833e-017
RightArm  -27.3917 -20.6563 71.7671
RightForeArm  53.7297 16.0847 1.09245
RightHand  -0.536034 -0.00118047 -11.591
LeftUpLeg  -22.382 13.4208 2.67512
LeftLeg  55.4452 15.0865 18.2693
LeftFoot  13.4703 -0.688615 5.98767
LeftToes  -38.7341 1.31378e-006 1.14341e-007
101
root  -14.4655 33.8994 18.0668 -164.824 18.1846 -175.94
RightUpLeg  -14.4796 -1.53483 8.25946
RightLeg  15.5758 -2.24227 -0.472088
RightFoot  -6.61801 -0.00821494 0.416375
RightToes  -19.52 -0.0787993 -0.172952
Spine  -1.61682 0.326462 2.1346
Spine1  -3.22498 0.824903 4.83973
HEad  -50.8114 -3.99217 6.22059
LeftShoulder1  -1.94126e-019 -3.10601e-018 -2.51263e-017
LeftArm  -10.3402 23.5749 -84.7949
LeftForeArm  26.7026 -31.8251 -5.47018
LeftHand  -0.35697 -1.01801 6.60193
RightShoulder  -4.96962e-017 0 -2.36833e-017
RightArm  -26.3093 -19.1414 71.2247
RightForeArm  52.9481 17.1949 1.17078
RightHand  -0.52723 0.0457384 -11.3077
LeftUpLeg  -22.5341 14.8175 2.04798
LeftLeg  55.586 19.7981 23.3564
LeftFoot  14.0815 -1.01243 8.34525
LeftToes  -39.6991 1.31378e-006 1.14341e-007
102
root  -14.2871 33.7576 17.05 -164.535 20.5738 -175.834
RightUpLeg  -13.8915 -1.22377 7.59244
RightLeg  17.3178 -0.354619 -0.086841
RightFoot  -8.29975 -0.0241217 0.214126
RightToes  -21.3899 -0.0893418 -0.187903
Spine  -1.6927 0.294065 2.23623
Spine1  -3.36674 0.769101 5.09901
HEad  -49.328 -4.4012 5.59362
LeftShoulder1  -1.94126e-019 -3.10601e-018 -2.51263e-017
LeftArm  -9.5472 23.9794 -85.6176
LeftForeArm  26.2373 -31.4714 -5.40821
LeftHand  -0.357073 -1.14051 6.49004
RightShoulder  -4.96962e-017 0 -2.36833e-017
RightArm  -25.5321 -17.2421 70.826
RightForeArm  52.0943 18.3434 1.40686
RightHand  -0.52117 0.115167 -11.0439
LeftUpLeg  -22.3275 15.6948 1.24243
LeftLeg  56.6011 22.9878 27.318
LeftFoot  13.3499 -1.10019 9.54186
LeftToes  -32.5711 1.31378e-006 1.14341e-007
103
root  -14.1488 33.5296 16.0157 -164.367 22.9586 -175.955
RightUpLeg  -13.9319 -1.44597 6.54079
RightLeg  20.3344 1.91608 0.57068
RightFoot  -10.3169 -0.0655258 -0.19355
RightToes  -24.1641 -0.105868 -0.20943
Spine  -1.69265 0.104437 2.34849
Spine1  -3.37536 0.38212 5.36308
HEad  -48.0046 -4.89331 4.9666
LeftShoulder1  -1.94126e-019 -3.10601e-018 -2.51263e-017
LeftArm  -9.27114 24.1369 -86.599
LeftForeArm  25.9108 -30.3744 -5.16066
LeftHand  -0.350225 -1.27693 6.24874
RightShoulder  -4.96962e-017 0 -2.36833e-017
RightArm  -24.5931 -15.6875 70.5895
RightForeArm  50.8578 21.8769 2.12518
RightHand  -0.501688 0.0205535 -10.8109
LeftUpLeg  -21.8549 15.6573 0.251183
LeftLeg  56.8242 23.0874 27.6039
LeftFoot  9.404 -0.551124 6.85467
LeftToes  -25.4716 1.31378e-006 1.14341e-007
104
root  -14.033 33.2222 14.9708 -164.162 24.6967 -175.945
RightUpLeg  -14.2305 -1.86087 5.49097
RightLeg  23.8919 3.98274 1.46027
RightFoot  -12.3546 -0.136909 -0.746028
RightToes  -27.7683 -0.128859 -0.23616
Spine  -1.66662 -0.376617 2.5167
Spine1  -3.34811 -0.566755 5.71377
HEad  -46.6829 -5.65149 4.95229
LeftShoulder1  -1.94126e-019 -3.10601e-018 -2.51263e-017
LeftArm  -9.35379 24.0262 -87.4544
LeftForeArm  25.4182 -28.8028 -4.81958
LeftHand  -0.362952 -1.49246 6.28546
RightShoulder  -4.96962e-017 0 -2.36833e-017
RightArm  -23.9149 -14.0382 70.6812
RightForeArm  49.8754 24.8438 2.75039
RightHand  -0.328798 -1.51488 -9.71727
LeftUpLeg  -21.7515 14.2558 -0.540585
LeftLeg  56.8651 21.0011 25.5741
LeftFoot  4.72172 -0.12562 3.20786
LeftToes  -21.5781 1.31378e-006 1.14341e-007
105
root  -13.9326 32.8429 13.9111 -163.822 26.1116 -175.824
RightUpLeg  -14.8117 -3.07209 4.42976
RightLeg  27.9357 6.37121 2.8551
RightFoot  -14.4022 -0.263724 -1.58425
RightToes  -32.1607 -0.159079 -0.266699
Spine  -1.50621 -0.987626 2.70723
Spine1  -3.06121 -1.78671 6.1116
HEad  -45.7892 -6.74197 5.36639
LeftShoulder1  -1.94126e-019 -3.10601e-018 -2.51263e-017
LeftArm  -10.771 23.5144 -88.1316
LeftForeArm  24.5916 -27.4955 -4.58692
LeftHand  -0.383715 -1.78362 6.38944
RightShoulder  -4.96962e-017 0 -2.36833e-017
RightArm  -23.7646 -12.3822 70.9547
RightForeArm  49.6971 27.748 3.35569
RightHand  -0.344506 -1.25409 -9.57583
LeftUpLeg  -22.128 13.118 -1.33933
LeftLeg  59.0685 21.3833 27.8356
LeftFoot  3.30725 -0.0665679 2.46718
LeftToes  -19.8562 1.31378e-006 1.14341e-007
106
root  -13.8355 32.4307 12.8576 -163.367 27.6523 -175.552
RightUpLeg  -15.6581 -4.26987 3.35943
RightLeg  32.3953 8.58411 4.6635
RightFoot  -15.9461 -0.425734 -2.5524
RightToes  -35.9526 -0.186985 -0.291136
Spine  -1.18054 -1.47259 2.84155
Spine1  -2.43846 -2.76576 6.37936
HEad  -45.4862 -8.2895 6.34696
LeftShoulder1  -1.94126e-019 -3.10601e-018 -2.51263e-017
LeftArm  -13.7724 22.653 -88.1362
LeftForeArm  23.9204 -27.1675 -4.55969
LeftHand  -0.399938 -2.26871 6.26624
RightShoulder  -4.96962e-017 0 -2.36833e-017
RightArm  -24.0075 -11.1454 71.363
RightForeArm  50.0318 30.6365 3.96289
RightHand  -0.354661 -1.10568 -9.53641
LeftUpLeg  -22.9258 12.9236 -1.85866
LeftLeg  61.7033 20.337 29.0911
LeftFoot  0.893542 -0.00509039 0.81447
LeftToes  -14.7327 1.31378e-006 1.14341e-007
107
root  -13.7567 32.01 11.8586 -162.76 29.1769 -175.133
RightUpLeg  -16.4725 -4.59476 2.4753
RightLeg  36.3011 9.60392 6.07956
RightFoot  -17.0007 -0.551264 -3.21005
RightToes  -38.5021 -0.206629 -0.306505
Spine  -0.785591 -1.8825 2.85558
Spine1  -1.67322 -3.58853 6.37541
HEad  -45.3622 -9.98962 7.98763
LeftShoulder1  -1.94126e-019 -3.10601e-018 -2.51263e-017
LeftArm  -16.3114 21.8 -86.715
LeftForeArm  22.6211 -28.3391 -4.86277
LeftHand  -0.39294 -2.15244 6.24639
RightShoulder  -4.96962e-017 0 -2.36833e-017
RightArm  -24.0734 -10.438 71.8581
RightForeArm  50.084 32.8063 4.44623
RightHand  -0.363945 -1.10674 -9.7916
LeftUpLeg  -24.703 13.2174 -2.04045
LeftLeg  64.5628 17.016 27.7026
LeftFoot  -3.19238 -0.0551357 -1.81679
LeftToes  -9.23827 1.31378e-006 1.14341e-007
108
root  -13.6925 31.6109 10.9066 -161.704 30.5224 -174.741
RightUpLeg  -17.5076 -3.84003 1.8514
RightLeg  39.6332 8.94333 6.41204
RightFoot  -18.2335 -0.60976 -3.31919
RightToes  -38.7045 -0.208217 -0.307687
Spine  -0.276743 -2.22745 2.65339
Spine1  -0.668446 -4.29467 5.93166
HEad  -46.2055 -11.5766 10.5543
LeftShoulder1  -1.94126e-019 -3.10601e-018 -2.51263e-017
LeftArm  -18.9126 20.891 -83.4261
LeftForeArm  23.2403 -31.6852 -5.62112
LeftHand  -0.355463 -2.67769 5.33659
RightShoulder  -4.96962e-017 0 -2.36833e-017
RightArm  -24.5258 -10.2484 72.5496
RightForeArm  50.9323 34.6526 4.83797
RightHand  -0.400959 -0.90395 -10.3312
LeftUpLeg  -27.9253 14.3482 -2.24372
LeftLeg  68.665 14.7453 28.5929
LeftFoot  -4.27296 -0.097941 -2.46328
LeftToes  -8.24308 1.31378e-006 1.14341e-007
109
root  -13.6402 31.3138 9.92969 -160.358 31.3024 -174.561
RightUpLeg  -17.762 -2.13935 1.2089
RightLeg  40.4172 7.62353 5.63163
RightFoot  -19.2096 -0.585639 -2.97178
RightToes  -39.6362 -0.215584 -0.313058
Spine  0.258925 -2.51666 2.11379
Spine1  0.406369 -4.88306 4.79606
HEad  -47.4325 -12.9618 12.7359
LeftShoulder1  -1.94126e-019 -3.10601e-018 -2.51263e-017
LeftArm  -19.7967 20.3587 -77.739
LeftForeArm  23.8953 -37.2709 -7.05349
LeftHand  -0.309652 -2.90696 4.56326
RightShoulder  -4.96962e-017 0 -2.36833e-017
RightArm  -25.3215 -11.2743 73.4446
RightForeArm  52.187 35.8227 5.05771
RightHand  -0.436011 -0.639647 -10.6408
LeftUpLeg  -32.3067 15.7382 -2.50335
LeftLeg  72.8851 12.7505 30.1427
LeftFoot  -5.83257 -0.187438 -3.5165
LeftToes  -6.3298 1.31378e-006 1.14341e-007
